<?xml version="1.0" encoding="utf-8"?>
<!-- Generator: Adobe Illustrator 23.0.4, SVG Export Plug-In . SVG Version: 6.00 Build 0)  -->
<svg version="1.1" id="Layer_1" xmlns="http://www.w3.org/2000/svg" xmlns:xlink="http://www.w3.org/1999/xlink" x="0px" y="0px"
	 viewBox="0 0 400 200.47" style="enable-background:new 0 0 400 200.47;" xml:space="preserve">
<g>
	<g>
		<g>
			<path d="M84.18,107.5L84.18,107.5l-60.76-0.09c-1.93,0-3.49-1.57-3.49-3.51c0-1.93,1.57-3.49,3.49-3.49l0,0l60.76,0.09
				c1.93,0,3.49,1.57,3.49,3.51C87.67,105.94,86.11,107.5,84.18,107.5z"/>
		</g>
		<g>
			<path d="M84.18,197.14L0,148.54v-97.2l84.18-48.6l84.19,48.6v97.2L84.18,197.14z M6.99,144.5l77.19,44.56l77.19-44.56V55.37
				L84.18,10.81L6.99,55.38V144.5z"/>
		</g>
		<g>
			<path d="M145.72,72.63c-0.6,0-1.2-0.15-1.75-0.47L83.22,37.09c-1.67-0.96-2.24-3.11-1.28-4.77s3.11-2.24,4.77-1.28l60.76,35.08
				c1.67,0.96,2.24,3.11,1.28,4.77C148.11,72.01,146.92,72.63,145.72,72.63z"/>
		</g>
		<g>
			<path d="M23.43,137.26c-1.93,0-3.49-1.56-3.49-3.49V63.61c0-1.93,1.56-3.49,3.49-3.49s3.49,1.56,3.49,3.49v70.15
				C26.92,135.69,25.36,137.26,23.43,137.26z"/>
		</g>
		<g>
			<path d="M84.18,177.57c-1.93,0-3.49-1.56-3.49-3.49V33.77c0-1.93,1.56-3.49,3.49-3.49c1.93,0,3.49,1.56,3.49,3.49v140.31
				C87.67,176,86.11,177.57,84.18,177.57z"/>
		</g>
		<g>
			<path d="M144.94,137.26c-0.52,0-1.04-0.12-1.53-0.36l-60.76-29.76l-0.17-6.19l0.93-0.52c1.68-0.95,3.81-0.35,4.76,1.33
				c0.07,0.13,0.13,0.25,0.19,0.39l58.12,28.47c1.73,0.85,2.45,2.95,1.6,4.68C147.47,136.54,146.23,137.26,144.94,137.26z"/>
		</g>
		<g>
			<path d="M84.34,107.77c-1.23,0-2.41-0.64-3.05-1.79c-0.95-1.68-0.35-3.81,1.33-4.76l60.93-34.2c1.68-0.95,3.81-0.35,4.76,1.33
				c0.95,1.68,0.35,3.81-1.33,4.76l-60.93,34.2C85.5,107.62,84.91,107.77,84.34,107.77z"/>
		</g>
	</g>
	<g>
		<path d="M185.36,55.79h7.92v13.4h15.39v-13.4h7.92v35.95h-7.92V76.21h-15.39v15.53h-7.92V55.79z"/>
		<path d="M224.22,55.79h24.43v7.31h-16.51v6.71h15.59v7.31h-15.59v7.31h17.41v7.31h-25.33L224.22,55.79L224.22,55.79z"/>
		<path d="M255.9,55.79h13.41c1.56,0,3.12,0.11,4.69,0.33s2.99,0.65,4.24,1.32c1.25,0.65,2.27,1.59,3.04,2.76
			c0.77,1.19,1.17,2.76,1.17,4.72c0,2.03-0.57,3.72-1.71,5.05c-1.13,1.33-2.63,2.29-4.49,2.87v0.11c1.19,0.17,2.27,0.51,3.23,0.99
			c0.96,0.49,1.8,1.12,2.49,1.88c0.69,0.76,1.23,1.65,1.6,2.67c0.37,1.01,0.56,2.09,0.56,3.25c0,1.89-0.41,3.48-1.21,4.75
			c-0.81,1.27-1.87,2.29-3.15,3.07c-1.29,0.77-2.73,1.33-4.35,1.68c-1.61,0.33-3.21,0.51-4.8,0.51H255.9L255.9,55.79L255.9,55.79z
			 M263.82,70.17h5.73c0.61,0,1.21-0.07,1.8-0.2c0.59-0.13,1.12-0.36,1.6-0.67c0.47-0.31,0.85-0.71,1.15-1.21
			c0.29-0.51,0.43-1.12,0.43-1.83c0-0.75-0.16-1.36-0.48-1.85c-0.32-0.49-0.73-0.87-1.24-1.15c-0.51-0.27-1.08-0.47-1.72-0.59
			c-0.64-0.12-1.27-0.17-1.88-0.17h-5.39L263.82,70.17L263.82,70.17z M263.82,85.05h7.11c0.61,0,1.23-0.07,1.85-0.2
			c0.63-0.13,1.2-0.37,1.71-0.71c0.51-0.33,0.92-0.77,1.24-1.32s0.48-1.2,0.48-1.99c0-0.84-0.21-1.53-0.64-2.05
			c-0.43-0.52-0.96-0.92-1.6-1.2c-0.64-0.27-1.33-0.45-2.08-0.56c-0.75-0.11-1.44-0.15-2.08-0.15h-5.99V85.05z"/>
		<path d="M300.63,55.79h6.55l15.64,35.95h-8.93l-3.09-7.61h-13.96l-3,7.61h-8.73L300.63,55.79z M303.67,66.26l-4.36,11.17h8.79
			L303.67,66.26z"/>
	</g>
	<g>
		<path d="M185.36,137.66l18.23-21.63h-17.57v-7.01h27.16v7.01l-17.88,21.63h18.48v7.31h-28.44v-7.31H185.36z"/>
		<path d="M231.07,109.02h6.55l15.64,35.95h-8.93l-3.09-7.61h-13.96l-3,7.61h-8.73L231.07,109.02z M234.11,119.49l-4.36,11.17h8.79
			L234.11,119.49z"/>
		<path d="M256.86,109.02h7.92v13.4h15.39v-13.4h7.92v35.95h-7.92v-15.53h-15.39v15.53h-7.92V109.02z"/>
		<path d="M295.39,109.02h13.91c1.83,0,3.56,0.17,5.2,0.53c1.64,0.36,3.08,0.95,4.32,1.77s2.21,1.95,2.95,3.35
			c0.73,1.4,1.09,3.16,1.09,5.25c0,2.53-0.65,4.69-1.97,6.47c-1.32,1.77-3.25,2.91-5.79,3.37l9.15,15.19h-9.49l-7.52-14.37h-3.91
			v14.37h-7.92v-35.93H295.39z M303.33,123.9h4.67c0.71,0,1.47-0.03,2.27-0.08c0.8-0.05,1.52-0.2,2.16-0.45
			c0.64-0.25,1.17-0.65,1.6-1.2c0.43-0.55,0.64-1.31,0.64-2.28c0-0.91-0.19-1.64-0.56-2.19c-0.37-0.55-0.84-0.96-1.43-1.24
			c-0.57-0.29-1.24-0.48-1.97-0.59c-0.75-0.11-1.47-0.15-2.19-0.15h-5.17v8.17H303.33z"/>
		<path d="M340.14,109.02h6.55l15.64,35.95h-8.93l-3.09-7.61h-13.96l-3,7.61h-8.73L340.14,109.02z M343.18,119.49l-4.36,11.17h8.79
			L343.18,119.49z"/>
		<path d="M365.93,109.02h10.76l15.28,24.99h0.11v-24.99H400v35.95h-10.36l-15.69-25.59h-0.11v25.59h-7.92v-35.95H365.93z"/>
	</g>
</g>
</svg>
